inDegrees=yes
name=ik_Xsens_5
DataType=double
version=3
OpenSimVersion=4.4-2022-07-23-0e9fedc
endheader
time	pelvis_tilt	pelvis_list	pelvis_rotation	pelvis_tx	pelvis_ty	pelvis_tz	hip_flexion_r	hip_adduction_r	hip_rotation_r	knee_angle_r	knee_angle_r_beta	ankle_angle_r	subtalar_angle_r	mtp_angle_r	hip_flexion_l	hip_adduction_l	hip_rotation_l	knee_angle_l	knee_angle_l_beta	ankle_angle_l	subtalar_angle_l	mtp_angle_l	lumbar_extension	lumbar_bending	lumbar_rotation	arm_flex_r	arm_add_r	arm_rot_r	elbow_flex_r	pro_sup_r	wrist_flex_r	wrist_dev_r	arm_flex_l	arm_add_l	arm_rot_l	elbow_flex_l	pro_sup_l	wrist_flex_l	wrist_dev_l
30	0	0	0	0	0.93	0	-7.457782462679469e-37	0	0	0	0	0	0	0	0	0	0	0	0	0	0	0	0	0	0	27.26727856437761	-118.3236156867834	12.25588820569342	46.01288703246859	15.12537057306404	0	0	2.898578522347552e-18	-9.448605832938852e-19	8.454968228115606e-18	1.032382424094114e-18	5.462461095420021e-18	0	0
30.01666666666667	0	0	-3.828453437994746e-50	0	0.93	0	5.823284903822696e-36	-8.418858142948453e-37	0	0	1.835217923462867e-41	1.077613842297402e-35	0	0	5.830668846854297e-36	-8.418858142948453e-37	0	0	1.835217923462867e-41	1.077613842297402e-35	0	0	0	0	-3.828453437994746e-50	27.29575498773406	-118.3292695733031	12.25009644032587	45.96574932475961	15.10934012354851	0	-1.978215770240616e-37	2.898578522347552e-18	-9.448605832938852e-19	8.454968228115606e-18	1.032382424094114e-18	5.462461095420021e-18	0	-1.978215770240616e-37
30.03333333333333	0	0	0	0	0.93	0	-1.480701570160193e-37	-3.651097715372797e-56	0	9.540836569444815e-39	9.515777228548668e-41	1.066838770713209e-39	0	0	-1.479970486829514e-37	-3.651097715372797e-56	0	9.540836569444815e-39	9.515777228548668e-41	1.066838770713209e-39	0	0	0	0	0	27.33039060053972	-118.3390362732336	12.24625855514084	45.90188663576384	15.0921335568838	0	-5.335907513078063e-36	2.898578522347552e-18	-9.448605832938852e-19	8.454968228115606e-18	1.032382424094114e-18	5.462461095420021e-18	0	-5.335907513078063e-36
30.05	0	0	0	0	0.93	0	2.85700213778181e-36	-1.484448028111518e-75	0	0	9.53913676447252e-42	1.056171439177528e-43	0	0	2.857002861632708e-36	-1.484448028111518e-75	0	0	9.53913676447252e-42	1.056171439177528e-43	0	0	0	0	0	27.35679567873461	-118.3459478158681	12.2519918937922	45.83914088923778	15.08010255555669	0	-5.282553720500997e-40	2.898578522347552e-18	-9.448605832938852e-19	8.454968228115606e-18	1.032382424094114e-18	5.462461095420021e-18	0	-5.282553720500997e-40
30.06666666666667	3.448364295351686e-34	0	4.900420400633275e-48	0	0.93	0	2.51160261358364e-36	-5.364805923401104e-95	0	0	9.53913676447252e-42	4.418556679021372e-36	0	0	2.511602620757855e-36	-5.364805923401104e-95	0	0	9.53913676447252e-42	4.418556679021372e-36	0	0	3.448364295351686e-34	0	4.900420400633275e-48	27.37543926871306	-118.3369624815158	12.27519656989387	45.76935428942645	15.06629487118728	0	2.761551428759257e-37	2.898578522347552e-18	-9.448605832938852e-19	8.454968228115606e-18	1.032382424094114e-18	5.462461095420021e-18	0	2.761551428759257e-37
30.08333333333333	1.402021522703154e-53	0	1.992392416672081e-67	0	0.93	0	4.594144125593695e-49	-2.181200338917967e-114	0	2.426570649309934e-20	-5.241540515187501e-23	2.190658629223678e-55	0	0	4.594144125593695e-49	-2.181200338917967e-114	0	2.426570649309934e-20	-5.241540515187501e-23	2.190658629223678e-55	0	0	1.402021522703154e-53	0	1.992392416672081e-67	27.38234159831178	-118.3087797489825	12.31668864086516	45.69991174083921	15.05149442093218	0	1.369161643264799e-56	2.898578522347552e-18	-9.448605832938852e-19	8.454968228115606e-18	1.032382424094114e-18	5.462461095420021e-18	0	1.369161643264799e-56
30.1	0	0	0	0	0.93	0	0	0	0	0	0	0	0	0	0	0	0	0	0	0	0	0	0	0	0	27.37725286003727	-118.2745777575402	12.37214225136879	45.63377004325768	15.04341457878408	0	0	2.898578522347552e-18	-9.448605832938852e-19	8.454968228115606e-18	1.032382424094114e-18	5.462461095420021e-18	0	0
30.11666666666667	-8.963271446721864e-13	1.3688910046174e-13	-3.736685985074846e-13	0	0.93	0	4.949682506316654e-37	-6.107414297649848e-29	0	1.561507631998121e-07	2.72534521310224e-09	7.747411942188313e-37	0	0	4.949682506316654e-37	-6.107414297649848e-29	0	1.561507631998121e-07	2.72534521310224e-09	7.747411942188313e-37	0	0	-8.963271446721864e-13	1.368891004617402e-13	-3.736685985074846e-13	27.36505754245791	-118.2382496220467	12.4230275021564	45.58944193948834	15.03780140691379	0	3.394149256281118e-37	2.898578522347552e-18	-9.448605832938852e-19	8.454968228115606e-18	1.032382424094114e-18	5.462461095420021e-18	0	3.394149256281118e-37
30.13333333333333	1.280015153567532e-28	2.719858948008616e-23	1.201404732431316e-28	-1.012041519036493e-27	0.93	-8.755986269403909e-28	-1.995157335433874e-35	4.892740977762793e-25	0	2.056871987838558e-15	3.589918848042586e-17	6.119095053812988e-24	5.181325944465794e-20	2.23475934060298e-21	-4.522985857877608e-23	-5.292819462773264e-29	3.54444048722508e-23	2.056903973894573e-15	3.589973533477149e-17	-9.490044192653427e-22	1.352247126645726e-26	-4.153537748127765e-22	-1.925252605850736e-28	7.849143636071444e-26	-9.420469913220564e-25	27.34946947903352	-118.2070753980214	12.46995364675737	45.555476613487	15.03683050138277	-2.822004508220581e-25	-1.831864414489032e-21	2.907203786351513e-18	-9.693123901670533e-19	8.452312869402363e-18	1.030558034862289e-18	5.46230903211494e-18	1.936632285613593e-26	-3.97637448168715e-23
30.15	1.395137065626423e-34	-2.639972204722947e-34	0	0	0.93	0	2.918009852079158e-36	7.245195483417606e-45	0	0	-2.938735877055719e-38	-1.335233967710497e-36	0	0	3.219859328023367e-36	-1.836313709412421e-48	0	0	0	-2.901038180751867e-36	0	0	1.322826733740694e-34	-2.639916540676689e-34	2.450210200316637e-48	27.33621918614356	-118.157552461177	12.50844816666701	45.5385695217382	15.02203206593152	0	-2.159519319240072e-37	2.907203786351513e-18	-9.693123901670533e-19	8.452312869402363e-18	1.030558034862289e-18	5.46230903211494e-18	0	4.809928945667389e-38
30.16666666666667	1.381187076157163e-38	8.729476717703876e-36	-1.028784465068325e-34	0	0.93	0	-1.068750745656803e-35	7.172750701334324e-49	0	0	0	-1.5913414406836e-36	0	0	-1.068451884788082e-35	-1.817952390270707e-52	0	0	0	-1.591496455455718e-36	0	0	1.309599776003092e-38	8.729477268778489e-36	-1.028784465068325e-34	27.32784293684541	-118.1030769360808	12.52814068099448	45.54534318764138	14.99799479339595	0	1.977386213343431e-37	2.907203786351513e-18	-9.693123901670533e-19	8.452312869402363e-18	1.030558034862289e-18	5.46230903211494e-18	0	1.977647624314129e-37
30.18333333333333	2.602047005342706e-26	5.828638952437666e-16	-1.603410565834142e-24	2.382251376005581e-17	0.93	-4.321237560575261e-18	-9.268673154663826e-26	1.215207978897796e-14	0	1.084010335090979e-16	1.892502970019312e-18	-6.96633489999759e-16	-2.459385424981872e-18	-2.609090748556508e-15	-3.28498977182021e-18	-1.616420763446103e-34	-2.803434898899607e-24	1.084010333347145e-16	1.892273923588228e-18	6.817876927040083e-15	1.171161629172318e-17	5.240402781177807e-15	-8.892838166577254e-23	-1.107299524280345e-14	-3.743010866691849e-15	27.32838942673225	-118.0491168484941	12.52466768022844	45.57330325219019	14.96475397367726	8.80767902573192e-17	8.946196640388341e-15	3.200294473756181e-18	-5.924681045574943e-19	8.743973507890455e-18	9.873440695110804e-19	5.504150958176794e-18	2.216506661072047e-15	-6.618277984596843e-15
30.2	-2.693642440514016e-27	3.043509579586948e-20	-3.858181971931464e-27	1.426890595621807e-22	0.93	-4.090447952792701e-19	-2.163987521629409e-28	5.838319634487305e-17	-4.987854144915325e-27	0	-2.589498867688519e-19	-3.760677262409017e-23	-3.237415215264045e-17	-1.252401631673354e-18	3.346526925718977e-16	1.745634037249084e-26	3.270675085142612e-16	0	-2.571212693692816e-19	-3.566623977894475e-19	1.948731478655951e-24	-4.180283167596901e-19	2.465441502095353e-27	-2.554410171672379e-16	-3.351363092498376e-24	27.32730033952957	-118.0204271509524	12.50815956212823	45.61532160163684	14.94571730322876	-1.625757510473134e-24	9.783094595898895e-18	3.200257281890749e-18	-5.924653944515137e-19	8.74392667149993e-18	9.872981432976945e-19	5.504195384430588e-18	-1.032315033099629e-20	-1.824995808100173e-18
